G04 MADE WITH FRITZING*
G04 WWW.FRITZING.ORG*
G04 DOUBLE SIDED*
G04 HOLES PLATED*
G04 CONTOUR ON CENTER OF CONTOUR VECTOR*
%ASAXBY*%
%FSLAX23Y23*%
%MOIN*%
%OFA0B0*%
%SFA1.0B1.0*%
%ADD10C,0.084000*%
%ADD11C,0.092000*%
%ADD12C,0.084667*%
%ADD13C,0.084695*%
%ADD14C,0.134033*%
%ADD15C,0.085000*%
%ADD16C,0.080000*%
%ADD17C,0.150000*%
%ADD18C,0.088000*%
%ADD19C,0.110000*%
%ADD20C,0.100000*%
%ADD21C,0.078000*%
%ADD22C,0.136000*%
%ADD23C,0.061496*%
%ADD24C,0.077244*%
%ADD25C,0.097695*%
%ADD26C,0.097722*%
%ADD27C,0.054000*%
%ADD28C,0.159606*%
%ADD29R,0.088000X0.088000*%
%ADD30C,0.030000*%
%ADD31R,0.001000X0.001000*%
%LNMASK1*%
G90*
G70*
G54D10*
X2256Y2977D03*
X2156Y3177D03*
X2056Y2977D03*
X2256Y2977D03*
X2156Y3177D03*
X2056Y2977D03*
X2256Y2977D03*
X2156Y3177D03*
X2056Y2977D03*
G54D11*
X2350Y3928D03*
X2350Y3828D03*
X2350Y3728D03*
G54D12*
X531Y3398D03*
X531Y3298D03*
G54D13*
X531Y3198D03*
G54D14*
X236Y3492D03*
X236Y3104D03*
G54D12*
X531Y3398D03*
X531Y3298D03*
G54D13*
X531Y3198D03*
G54D14*
X236Y3492D03*
X236Y3104D03*
G54D15*
X641Y3269D03*
X673Y3056D03*
G54D16*
X2248Y3615D03*
X2177Y3686D03*
G54D15*
X2153Y3859D03*
X2153Y3959D03*
X552Y2497D03*
X452Y2497D03*
X352Y2497D03*
X552Y2497D03*
X452Y2497D03*
X352Y2497D03*
G54D11*
X2665Y3039D03*
X2665Y2741D03*
G54D15*
X1625Y3403D03*
X1925Y3403D03*
G54D17*
X2555Y2332D03*
X2795Y2332D03*
X2675Y2522D03*
G54D18*
X224Y2966D03*
X224Y2866D03*
X224Y2766D03*
X224Y2666D03*
X224Y2566D03*
X224Y2466D03*
X224Y2366D03*
X224Y2266D03*
X224Y2166D03*
G54D15*
X1508Y2166D03*
X1712Y2166D03*
G54D18*
X720Y3623D03*
G54D19*
X2374Y2928D03*
X2374Y2418D03*
G54D20*
X1354Y2238D03*
X824Y3118D03*
X1884Y3118D03*
G54D19*
X2374Y2928D03*
X2374Y2418D03*
G54D20*
X1354Y2238D03*
X824Y3118D03*
X1884Y3118D03*
G54D21*
X1269Y3470D03*
X1367Y3470D03*
X1367Y3548D03*
X1269Y3548D03*
G54D22*
X1081Y3655D03*
X1555Y3655D03*
G54D11*
X1412Y3190D03*
X1114Y3190D03*
X1475Y3324D03*
X1177Y3324D03*
G54D15*
X752Y2473D03*
X752Y2773D03*
X704Y2923D03*
X445Y2773D03*
X2060Y3324D03*
X1760Y3324D03*
X1539Y2875D03*
X1539Y3175D03*
X1657Y2985D03*
X1657Y3285D03*
G54D23*
X2964Y2914D03*
X2886Y2914D03*
X2964Y2836D03*
X2886Y2836D03*
X2964Y2757D03*
X2886Y2757D03*
G54D24*
X2925Y2655D03*
X2925Y3017D03*
G54D23*
X2964Y2914D03*
X2886Y2914D03*
X2964Y2836D03*
X2886Y2836D03*
X2964Y2757D03*
X2886Y2757D03*
G54D24*
X2925Y2655D03*
X2925Y3017D03*
G54D15*
X1180Y2457D03*
X1180Y2757D03*
X1080Y2457D03*
X1080Y2757D03*
X980Y2457D03*
X980Y2757D03*
X880Y2457D03*
X880Y2757D03*
X1180Y2457D03*
X1180Y2757D03*
X1080Y2457D03*
X1080Y2757D03*
X980Y2457D03*
X980Y2757D03*
X880Y2457D03*
X880Y2757D03*
G54D18*
X1621Y2752D03*
X1621Y2652D03*
X1621Y2552D03*
X1621Y2752D03*
X1621Y2652D03*
X1621Y2552D03*
X1854Y2752D03*
X1854Y2652D03*
X1854Y2552D03*
X1854Y2752D03*
X1854Y2652D03*
X1854Y2552D03*
G54D25*
X386Y3899D03*
G54D26*
X582Y3702D03*
X484Y3702D03*
G54D25*
X287Y3702D03*
G54D26*
X189Y3702D03*
G54D27*
X582Y3997D03*
X189Y3997D03*
X189Y3899D03*
X386Y3702D03*
X582Y3899D03*
G54D28*
X2925Y151D03*
X169Y159D03*
X2098Y3505D03*
X760Y3899D03*
G54D12*
X2586Y3232D03*
X2586Y3332D03*
G54D13*
X2586Y3432D03*
G54D14*
X2882Y3138D03*
X2882Y3526D03*
G54D12*
X2586Y3232D03*
X2586Y3332D03*
G54D13*
X2586Y3432D03*
G54D14*
X2882Y3138D03*
X2882Y3526D03*
G54D29*
X1621Y2752D03*
X1621Y2752D03*
X1854Y2752D03*
X1854Y2752D03*
G54D30*
G36*
X2381Y3897D02*
X2319Y3897D01*
X2319Y3959D01*
X2381Y3959D01*
X2381Y3897D01*
G37*
D02*
G36*
X2126Y3887D02*
X2181Y3887D01*
X2181Y3832D01*
X2126Y3832D01*
X2126Y3887D01*
G37*
D02*
G36*
X2696Y3009D02*
X2634Y3009D01*
X2634Y3071D01*
X2696Y3071D01*
X2696Y3009D01*
G37*
D02*
G36*
X1382Y3159D02*
X1382Y3221D01*
X1444Y3221D01*
X1444Y3159D01*
X1382Y3159D01*
G37*
D02*
G36*
X1445Y3293D02*
X1445Y3355D01*
X1507Y3355D01*
X1507Y3293D01*
X1445Y3293D01*
G37*
D02*
G36*
X1208Y2429D02*
X1153Y2429D01*
X1153Y2484D01*
X1208Y2484D01*
X1208Y2429D01*
G37*
D02*
G36*
X1208Y2429D02*
X1153Y2429D01*
X1153Y2484D01*
X1208Y2484D01*
X1208Y2429D01*
G37*
D02*
G54D31*
X2318Y2983D02*
X2427Y2983D01*
X2318Y2982D02*
X2427Y2982D01*
X2318Y2981D02*
X2427Y2981D01*
X2318Y2980D02*
X2427Y2980D01*
X2318Y2979D02*
X2427Y2979D01*
X2318Y2978D02*
X2427Y2978D01*
X2318Y2977D02*
X2427Y2977D01*
X2318Y2976D02*
X2427Y2976D01*
X2318Y2975D02*
X2427Y2975D01*
X2318Y2974D02*
X2427Y2974D01*
X2318Y2973D02*
X2427Y2973D01*
X2318Y2972D02*
X2427Y2972D01*
X2318Y2971D02*
X2427Y2971D01*
X2318Y2970D02*
X2427Y2970D01*
X2318Y2969D02*
X2427Y2969D01*
X2318Y2968D02*
X2427Y2968D01*
X2318Y2967D02*
X2427Y2967D01*
X2318Y2966D02*
X2427Y2966D01*
X2318Y2965D02*
X2427Y2965D01*
X2318Y2964D02*
X2427Y2964D01*
X2318Y2963D02*
X2364Y2963D01*
X2381Y2963D02*
X2427Y2963D01*
X2318Y2962D02*
X2361Y2962D01*
X2385Y2962D02*
X2427Y2962D01*
X2318Y2961D02*
X2358Y2961D01*
X2388Y2961D02*
X2427Y2961D01*
X2318Y2960D02*
X2356Y2960D01*
X2390Y2960D02*
X2427Y2960D01*
X2318Y2959D02*
X2354Y2959D01*
X2391Y2959D02*
X2427Y2959D01*
X2318Y2958D02*
X2353Y2958D01*
X2393Y2958D02*
X2427Y2958D01*
X2318Y2957D02*
X2351Y2957D01*
X2394Y2957D02*
X2427Y2957D01*
X2318Y2956D02*
X2350Y2956D01*
X2396Y2956D02*
X2427Y2956D01*
X2318Y2955D02*
X2349Y2955D01*
X2397Y2955D02*
X2427Y2955D01*
X2318Y2954D02*
X2348Y2954D01*
X2398Y2954D02*
X2427Y2954D01*
X2318Y2953D02*
X2347Y2953D01*
X2399Y2953D02*
X2427Y2953D01*
X2318Y2952D02*
X2346Y2952D01*
X2400Y2952D02*
X2427Y2952D01*
X2318Y2951D02*
X2345Y2951D01*
X2400Y2951D02*
X2427Y2951D01*
X2318Y2950D02*
X2344Y2950D01*
X2401Y2950D02*
X2427Y2950D01*
X2318Y2949D02*
X2344Y2949D01*
X2402Y2949D02*
X2427Y2949D01*
X2318Y2948D02*
X2343Y2948D01*
X2403Y2948D02*
X2427Y2948D01*
X2318Y2947D02*
X2342Y2947D01*
X2403Y2947D02*
X2427Y2947D01*
X2318Y2946D02*
X2342Y2946D01*
X2404Y2946D02*
X2427Y2946D01*
X2318Y2945D02*
X2341Y2945D01*
X2404Y2945D02*
X2427Y2945D01*
X2318Y2944D02*
X2341Y2944D01*
X2405Y2944D02*
X2427Y2944D01*
X2318Y2943D02*
X2340Y2943D01*
X2405Y2943D02*
X2427Y2943D01*
X2318Y2942D02*
X2340Y2942D01*
X2406Y2942D02*
X2427Y2942D01*
X2318Y2941D02*
X2339Y2941D01*
X2406Y2941D02*
X2427Y2941D01*
X2318Y2940D02*
X2339Y2940D01*
X2407Y2940D02*
X2427Y2940D01*
X2318Y2939D02*
X2339Y2939D01*
X2407Y2939D02*
X2427Y2939D01*
X2318Y2938D02*
X2339Y2938D01*
X2407Y2938D02*
X2427Y2938D01*
X2318Y2937D02*
X2338Y2937D01*
X2407Y2937D02*
X2427Y2937D01*
X2318Y2936D02*
X2338Y2936D01*
X2408Y2936D02*
X2427Y2936D01*
X2318Y2935D02*
X2338Y2935D01*
X2408Y2935D02*
X2427Y2935D01*
X2318Y2934D02*
X2338Y2934D01*
X2408Y2934D02*
X2427Y2934D01*
X2318Y2933D02*
X2338Y2933D01*
X2408Y2933D02*
X2427Y2933D01*
X2318Y2932D02*
X2337Y2932D01*
X2408Y2932D02*
X2427Y2932D01*
X2318Y2931D02*
X2337Y2931D01*
X2408Y2931D02*
X2427Y2931D01*
X2318Y2930D02*
X2337Y2930D01*
X2408Y2930D02*
X2427Y2930D01*
X2318Y2929D02*
X2337Y2929D01*
X2408Y2929D02*
X2427Y2929D01*
X2318Y2928D02*
X2337Y2928D01*
X2408Y2928D02*
X2427Y2928D01*
X2318Y2927D02*
X2337Y2927D01*
X2408Y2927D02*
X2427Y2927D01*
X2318Y2926D02*
X2337Y2926D01*
X2408Y2926D02*
X2427Y2926D01*
X2318Y2925D02*
X2338Y2925D01*
X2408Y2925D02*
X2427Y2925D01*
X2318Y2924D02*
X2338Y2924D01*
X2408Y2924D02*
X2427Y2924D01*
X2318Y2923D02*
X2338Y2923D01*
X2408Y2923D02*
X2427Y2923D01*
X2318Y2922D02*
X2338Y2922D01*
X2408Y2922D02*
X2427Y2922D01*
X2318Y2921D02*
X2338Y2921D01*
X2407Y2921D02*
X2427Y2921D01*
X2318Y2920D02*
X2338Y2920D01*
X2407Y2920D02*
X2427Y2920D01*
X2318Y2919D02*
X2339Y2919D01*
X2407Y2919D02*
X2427Y2919D01*
X2318Y2918D02*
X2339Y2918D01*
X2407Y2918D02*
X2427Y2918D01*
X2318Y2917D02*
X2339Y2917D01*
X2406Y2917D02*
X2427Y2917D01*
X2318Y2916D02*
X2340Y2916D01*
X2406Y2916D02*
X2427Y2916D01*
X2318Y2915D02*
X2340Y2915D01*
X2406Y2915D02*
X2427Y2915D01*
X2318Y2914D02*
X2341Y2914D01*
X2405Y2914D02*
X2427Y2914D01*
X2318Y2913D02*
X2341Y2913D01*
X2405Y2913D02*
X2427Y2913D01*
X2318Y2912D02*
X2342Y2912D01*
X2404Y2912D02*
X2427Y2912D01*
X2318Y2911D02*
X2342Y2911D01*
X2403Y2911D02*
X2427Y2911D01*
X2318Y2910D02*
X2343Y2910D01*
X2403Y2910D02*
X2427Y2910D01*
X2318Y2909D02*
X2344Y2909D01*
X2402Y2909D02*
X2427Y2909D01*
X2318Y2908D02*
X2344Y2908D01*
X2401Y2908D02*
X2427Y2908D01*
X2318Y2907D02*
X2345Y2907D01*
X2401Y2907D02*
X2427Y2907D01*
X2318Y2906D02*
X2346Y2906D01*
X2400Y2906D02*
X2427Y2906D01*
X2318Y2905D02*
X2347Y2905D01*
X2399Y2905D02*
X2427Y2905D01*
X2318Y2904D02*
X2348Y2904D01*
X2398Y2904D02*
X2427Y2904D01*
X2318Y2903D02*
X2349Y2903D01*
X2397Y2903D02*
X2427Y2903D01*
X2318Y2902D02*
X2350Y2902D01*
X2396Y2902D02*
X2427Y2902D01*
X2318Y2901D02*
X2351Y2901D01*
X2394Y2901D02*
X2427Y2901D01*
X2318Y2900D02*
X2353Y2900D01*
X2393Y2900D02*
X2427Y2900D01*
X2318Y2899D02*
X2354Y2899D01*
X2392Y2899D02*
X2427Y2899D01*
X2318Y2898D02*
X2356Y2898D01*
X2390Y2898D02*
X2427Y2898D01*
X2318Y2897D02*
X2358Y2897D01*
X2388Y2897D02*
X2427Y2897D01*
X2318Y2896D02*
X2360Y2896D01*
X2385Y2896D02*
X2427Y2896D01*
X2318Y2895D02*
X2364Y2895D01*
X2382Y2895D02*
X2427Y2895D01*
X2318Y2894D02*
X2370Y2894D01*
X2375Y2894D02*
X2427Y2894D01*
X2318Y2893D02*
X2427Y2893D01*
X2318Y2892D02*
X2427Y2892D01*
X2318Y2891D02*
X2427Y2891D01*
X2318Y2890D02*
X2427Y2890D01*
X2318Y2889D02*
X2427Y2889D01*
X2318Y2888D02*
X2427Y2888D01*
X2318Y2887D02*
X2427Y2887D01*
X2318Y2886D02*
X2427Y2886D01*
X2318Y2885D02*
X2427Y2885D01*
X2318Y2884D02*
X2427Y2884D01*
X2318Y2883D02*
X2427Y2883D01*
X2318Y2882D02*
X2427Y2882D01*
X2318Y2881D02*
X2427Y2881D01*
X2318Y2880D02*
X2427Y2880D01*
X2318Y2879D02*
X2427Y2879D01*
X2318Y2878D02*
X2427Y2878D01*
X2318Y2877D02*
X2427Y2877D01*
X2318Y2876D02*
X2427Y2876D01*
X2318Y2875D02*
X2427Y2875D01*
X2319Y2874D02*
X2427Y2874D01*
X2318Y2473D02*
X2427Y2473D01*
X2318Y2472D02*
X2427Y2472D01*
X2318Y2471D02*
X2427Y2471D01*
X2318Y2470D02*
X2427Y2470D01*
X2318Y2469D02*
X2427Y2469D01*
X2318Y2468D02*
X2427Y2468D01*
X2318Y2467D02*
X2427Y2467D01*
X2318Y2466D02*
X2427Y2466D01*
X2318Y2465D02*
X2427Y2465D01*
X2318Y2464D02*
X2427Y2464D01*
X2318Y2463D02*
X2427Y2463D01*
X2318Y2462D02*
X2427Y2462D01*
X2318Y2461D02*
X2427Y2461D01*
X2318Y2460D02*
X2427Y2460D01*
X2318Y2459D02*
X2427Y2459D01*
X2318Y2458D02*
X2427Y2458D01*
X2318Y2457D02*
X2427Y2457D01*
X2318Y2456D02*
X2427Y2456D01*
X2318Y2455D02*
X2427Y2455D01*
X2318Y2454D02*
X2427Y2454D01*
X2318Y2453D02*
X2364Y2453D01*
X2381Y2453D02*
X2427Y2453D01*
X2318Y2452D02*
X2361Y2452D01*
X2385Y2452D02*
X2427Y2452D01*
X2318Y2451D02*
X2358Y2451D01*
X2388Y2451D02*
X2427Y2451D01*
X2318Y2450D02*
X2356Y2450D01*
X2390Y2450D02*
X2427Y2450D01*
X2318Y2449D02*
X2354Y2449D01*
X2391Y2449D02*
X2427Y2449D01*
X2318Y2448D02*
X2353Y2448D01*
X2393Y2448D02*
X2427Y2448D01*
X2318Y2447D02*
X2351Y2447D01*
X2394Y2447D02*
X2427Y2447D01*
X2318Y2446D02*
X2350Y2446D01*
X2396Y2446D02*
X2427Y2446D01*
X2318Y2445D02*
X2349Y2445D01*
X2397Y2445D02*
X2427Y2445D01*
X2318Y2444D02*
X2348Y2444D01*
X2398Y2444D02*
X2427Y2444D01*
X2318Y2443D02*
X2347Y2443D01*
X2399Y2443D02*
X2427Y2443D01*
X2318Y2442D02*
X2346Y2442D01*
X2400Y2442D02*
X2427Y2442D01*
X2318Y2441D02*
X2345Y2441D01*
X2400Y2441D02*
X2427Y2441D01*
X2318Y2440D02*
X2344Y2440D01*
X2401Y2440D02*
X2427Y2440D01*
X2318Y2439D02*
X2344Y2439D01*
X2402Y2439D02*
X2427Y2439D01*
X2318Y2438D02*
X2343Y2438D01*
X2403Y2438D02*
X2427Y2438D01*
X2318Y2437D02*
X2342Y2437D01*
X2403Y2437D02*
X2427Y2437D01*
X2318Y2436D02*
X2342Y2436D01*
X2404Y2436D02*
X2427Y2436D01*
X2318Y2435D02*
X2341Y2435D01*
X2404Y2435D02*
X2427Y2435D01*
X2318Y2434D02*
X2341Y2434D01*
X2405Y2434D02*
X2427Y2434D01*
X2318Y2433D02*
X2340Y2433D01*
X2405Y2433D02*
X2427Y2433D01*
X2318Y2432D02*
X2340Y2432D01*
X2406Y2432D02*
X2427Y2432D01*
X2318Y2431D02*
X2339Y2431D01*
X2406Y2431D02*
X2427Y2431D01*
X2318Y2430D02*
X2339Y2430D01*
X2407Y2430D02*
X2427Y2430D01*
X2318Y2429D02*
X2339Y2429D01*
X2407Y2429D02*
X2427Y2429D01*
X2318Y2428D02*
X2339Y2428D01*
X2407Y2428D02*
X2427Y2428D01*
X2318Y2427D02*
X2338Y2427D01*
X2407Y2427D02*
X2427Y2427D01*
X2318Y2426D02*
X2338Y2426D01*
X2408Y2426D02*
X2427Y2426D01*
X2318Y2425D02*
X2338Y2425D01*
X2408Y2425D02*
X2427Y2425D01*
X2318Y2424D02*
X2338Y2424D01*
X2408Y2424D02*
X2427Y2424D01*
X2318Y2423D02*
X2338Y2423D01*
X2408Y2423D02*
X2427Y2423D01*
X2318Y2422D02*
X2337Y2422D01*
X2408Y2422D02*
X2427Y2422D01*
X2318Y2421D02*
X2337Y2421D01*
X2408Y2421D02*
X2427Y2421D01*
X2318Y2420D02*
X2337Y2420D01*
X2408Y2420D02*
X2427Y2420D01*
X2318Y2419D02*
X2337Y2419D01*
X2408Y2419D02*
X2427Y2419D01*
X2318Y2418D02*
X2337Y2418D01*
X2408Y2418D02*
X2427Y2418D01*
X2318Y2417D02*
X2337Y2417D01*
X2408Y2417D02*
X2427Y2417D01*
X2318Y2416D02*
X2337Y2416D01*
X2408Y2416D02*
X2427Y2416D01*
X2318Y2415D02*
X2338Y2415D01*
X2408Y2415D02*
X2427Y2415D01*
X2318Y2414D02*
X2338Y2414D01*
X2408Y2414D02*
X2427Y2414D01*
X2318Y2413D02*
X2338Y2413D01*
X2408Y2413D02*
X2427Y2413D01*
X2318Y2412D02*
X2338Y2412D01*
X2408Y2412D02*
X2427Y2412D01*
X2318Y2411D02*
X2338Y2411D01*
X2407Y2411D02*
X2427Y2411D01*
X2318Y2410D02*
X2338Y2410D01*
X2407Y2410D02*
X2427Y2410D01*
X2318Y2409D02*
X2339Y2409D01*
X2407Y2409D02*
X2427Y2409D01*
X2318Y2408D02*
X2339Y2408D01*
X2407Y2408D02*
X2427Y2408D01*
X2318Y2407D02*
X2339Y2407D01*
X2406Y2407D02*
X2427Y2407D01*
X2318Y2406D02*
X2340Y2406D01*
X2406Y2406D02*
X2427Y2406D01*
X2318Y2405D02*
X2340Y2405D01*
X2406Y2405D02*
X2427Y2405D01*
X2318Y2404D02*
X2341Y2404D01*
X2405Y2404D02*
X2427Y2404D01*
X2318Y2403D02*
X2341Y2403D01*
X2405Y2403D02*
X2427Y2403D01*
X2318Y2402D02*
X2342Y2402D01*
X2404Y2402D02*
X2427Y2402D01*
X2318Y2401D02*
X2342Y2401D01*
X2403Y2401D02*
X2427Y2401D01*
X2318Y2400D02*
X2343Y2400D01*
X2403Y2400D02*
X2427Y2400D01*
X2318Y2399D02*
X2344Y2399D01*
X2402Y2399D02*
X2427Y2399D01*
X2318Y2398D02*
X2344Y2398D01*
X2401Y2398D02*
X2427Y2398D01*
X2318Y2397D02*
X2345Y2397D01*
X2401Y2397D02*
X2427Y2397D01*
X2318Y2396D02*
X2346Y2396D01*
X2400Y2396D02*
X2427Y2396D01*
X2318Y2395D02*
X2347Y2395D01*
X2399Y2395D02*
X2427Y2395D01*
X2318Y2394D02*
X2348Y2394D01*
X2398Y2394D02*
X2427Y2394D01*
X2318Y2393D02*
X2349Y2393D01*
X2397Y2393D02*
X2427Y2393D01*
X2318Y2392D02*
X2350Y2392D01*
X2396Y2392D02*
X2427Y2392D01*
X2318Y2391D02*
X2351Y2391D01*
X2394Y2391D02*
X2427Y2391D01*
X2318Y2390D02*
X2353Y2390D01*
X2393Y2390D02*
X2427Y2390D01*
X2318Y2389D02*
X2354Y2389D01*
X2392Y2389D02*
X2427Y2389D01*
X2318Y2388D02*
X2356Y2388D01*
X2390Y2388D02*
X2427Y2388D01*
X2318Y2387D02*
X2358Y2387D01*
X2388Y2387D02*
X2427Y2387D01*
X2318Y2386D02*
X2360Y2386D01*
X2385Y2386D02*
X2427Y2386D01*
X2318Y2385D02*
X2364Y2385D01*
X2382Y2385D02*
X2427Y2385D01*
X2318Y2384D02*
X2370Y2384D01*
X2375Y2384D02*
X2427Y2384D01*
X2318Y2383D02*
X2427Y2383D01*
X2318Y2382D02*
X2427Y2382D01*
X2318Y2381D02*
X2427Y2381D01*
X2318Y2380D02*
X2427Y2380D01*
X2318Y2379D02*
X2427Y2379D01*
X2318Y2378D02*
X2427Y2378D01*
X2318Y2377D02*
X2427Y2377D01*
X2318Y2376D02*
X2427Y2376D01*
X2318Y2375D02*
X2427Y2375D01*
X2318Y2374D02*
X2427Y2374D01*
X2318Y2373D02*
X2427Y2373D01*
X2318Y2372D02*
X2427Y2372D01*
X2318Y2371D02*
X2427Y2371D01*
X2318Y2370D02*
X2427Y2370D01*
X2318Y2369D02*
X2427Y2369D01*
X2318Y2368D02*
X2427Y2368D01*
X2318Y2367D02*
X2427Y2367D01*
X2318Y2366D02*
X2427Y2366D01*
X2318Y2365D02*
X2427Y2365D01*
X2319Y2364D02*
X2427Y2364D01*
D02*
G04 End of Mask1*
M02*