; NON-PLATED HOLES START AT T1
; THROUGH (PLATED) HOLES START AT T100
M48
INCH
T1C0.090000
T2C0.044000
T3C0.149606
T100C0.031496
T101C0.052972
T102C0.047244
T103C0.039370
T104C0.035000
T105C0.038000
T106C0.028000
T107C0.041361
T108C0.088356
T109C0.030000
T110C0.086000
T111C0.041333
T112C0.042000
T113C0.080000
T114C0.100000
T115C0.053000
%
T1
X018837Y031184
X008237Y031184
X013537Y022384
T2
X001887Y038986
X005823Y038986
X005823Y039970
X001887Y039970
X003855Y037018
T3
X029249Y001506
X007595Y038987
X001690Y001585
X020981Y035050
T100
X028855Y028357
X028855Y027569
X029642Y027569
X029642Y029144
X028855Y029144
X029642Y028357
T101
X002871Y037018
X003855Y038986
T102
X029249Y026546
X029249Y030168
T103
X021556Y031774
X020556Y029774
X022556Y029774
T104
X016571Y029853
X005524Y024971
X015075Y021664
X017595Y033239
X020595Y033239
X021532Y039593
X010800Y024569
X009800Y027569
X006414Y032688
X021532Y038593
X007044Y029227
X004445Y027727
X015390Y028751
X007516Y027727
X019249Y034026
X008800Y024569
X010800Y027569
X008800Y027569
X003524Y024971
X007516Y024727
X004524Y024971
X009800Y024569
X011800Y027569
X017123Y021664
X011800Y024569
X016571Y032853
X006729Y030562
X016249Y034026
X015390Y031751
T105
X016207Y025522
X002241Y025656
X002241Y022656
X002241Y028656
X018540Y026522
X002241Y021656
X007201Y036231
X002241Y029656
X002241Y027656
X018540Y025522
X002241Y026656
X016207Y026522
X016207Y027522
X002241Y023656
X002241Y024656
X018540Y027522
T106
X013668Y035476
X012688Y034696
X013668Y034696
X012688Y035476
T107
X005312Y031979
X025863Y034318
T108
X028816Y035259
X002359Y031037
X028816Y031376
X002359Y034921
T109
X021768Y036861
X022477Y036152
T110
X010808Y036546
X015548Y036546
T111
X005312Y032979
X005312Y033979
X025863Y033317
X025863Y032317
T112
X026650Y030392
X014748Y033239
X026650Y027412
X023501Y037278
X014118Y031900
X011768Y033239
X011138Y031900
X023501Y038278
X023501Y039278
T113
X023737Y029284
X023737Y024184
T114
X026748Y025218
X027948Y023318
X025548Y023318
T115
X004839Y037018
X001887Y037018
X005823Y037018
T00
M30
